<?xml version="1.0" encoding="UTF-8"?>
<svg id="_0" data-name="0" xmlns="http://www.w3.org/2000/svg" viewBox="0 0 800 800">
  <defs>
    <style>
      .cls-1 {
        fill-rule: evenodd;
      }
    </style>
  </defs>
  <path class="cls-1" d="m491.04,86.32l-33.28-7.68-22.55-3.17-34.11-1.79-22.76.79,1.42,20.35,1.9,27.13,1.42,20.35,18.02-.63,27,1.42,17.86,2.51,26.35,6.08,17.15,5.57,6.98-19.16,9.3-25.55,6.98-19.16-21.66-7.04Zm-13.12,45.74l-28.43-6.56-19.27-2.71-29.14-1.53v-27.19l31.98,1.68,21.15,2.97,31.2,7.2-7.5,26.14Z"/>
  <polygon class="cls-1" points="511.66 14.44 504.16 40.58 498.54 60.18 522.01 67.81 528.98 48.64 538.28 23.09 511.66 14.44"/>
  <polygon class="cls-1" points="443.02 1.1 440.18 28.14 401.1 26.09 375.02 27.01 336.17 31.77 331.45 4.99 304.06 10.82 310.64 37.2 315.58 56.99 322.16 83.38 327.09 103.16 333.67 129.55 338.6 149.34 356.24 145.59 352.7 125.5 347.98 98.72 344.43 78.64 339.71 51.86 376.44 47.35 401.1 46.49 438.05 48.43 462.49 51.86 466.03 31.77 470.75 4.99 443.02 1.1"/>
  <polygon class="cls-1" points="305.77 138.08 287.73 145.37 261.73 158.61 245.24 168.92 221.93 186.48 207.48 199.5 187.58 220.84 175.6 236.17 159.71 260.64 150.58 277.81 168.91 286.75 177.37 270.83 192.1 248.15 203.2 233.95 221.64 214.17 235.04 202.1 256.64 185.83 271.93 176.28 296.02 164 312.74 157.24 305.77 138.08"/>
  <polygon class="cls-1" points="289.49 93.36 280.19 67.81 273.22 48.64 263.91 23.09 237.96 33.58 249.02 58.42 214.15 76.19 192.01 90.02 160.76 113.57 143.28 92.74 122.47 111.47 141.36 131.03 155.53 145.71 173.87 129.2 203.42 106.93 224.34 93.85 257.31 77.05 268.37 101.89 237.94 117.4 218.62 129.47 191.35 150.03 174.42 165.27 151.12 190.25 137.1 208.2 118.5 236.84 107.81 256.95 126.14 265.89 136.16 247.04 153.6 220.18 166.75 203.36 188.59 179.94 204.46 165.65 230.03 146.38 248.14 135.06 276.67 120.53 296.47 112.53 289.49 93.36"/>
  <polygon class="cls-1" points="139.18 304.67 113.63 295.37 94.46 288.39 68.91 279.09 83.37 245.03 94.95 223.24 115.1 192.21 130.29 172.77 114.67 159.66 93.84 142.18 76.6 164.24 98.6 180.22 77.29 213.05 65.03 236.09 49.74 272.12 24.19 262.82 15.54 289.44 41.68 296.94 61.28 302.56 87.42 310.05 107.03 315.68 133.17 323.17 152.77 328.79 158.34 311.64 139.18 304.67"/>
  <polygon class="cls-1" points="126.6 351.6 99.82 346.88 79.74 343.34 52.96 338.61 32.87 335.07 6.09 330.35 2.2 358.07 29.24 360.92 49.52 363.05 76.57 365.89 96.85 368.02 123.9 370.86 144.18 373 146.69 355.14 126.6 351.6"/>
  <polygon class="cls-1" points="166.37 626.68 181.04 612.51 200.6 593.62 215.27 579.45 203.2 566.05 187.58 579.16 166.75 596.64 151.12 609.75 130.29 627.23 108.03 597.68 94.95 576.76 78.15 543.79 68.91 520.91 49.74 527.88 24.19 537.18 34.68 563.14 59.52 552.08 77.29 586.95 91.12 609.09 114.67 640.34 93.84 657.82 112.57 678.63 132.13 659.74 146.8 645.57 166.37 626.68"/>
  <path class="cls-1" d="m99.82,453.12l-20.08,3.54,4.74,22.28,9.99,32.66,8.53,21.12,15.51,30.43,12.07,19.32,16.91-11.4,22.54-15.21,16.91-11.4-9.56-15.29-12.28-24.09-6.75-16.72-7.91-25.86-3.75-17.64-20.08,3.54-26.78,4.72Zm39.35,42.21l7.29,18.04,13.25,26-23.55,13.6-14.54-28.53-8-19.8-9.36-30.62,26.39-6.58,8.53,27.9Z"/>
  <polygon class="cls-1" points="48.45 424.66 75.58 422.76 95.92 421.34 123.05 419.44 143.39 418.02 142.76 400 122.37 400 95.18 400 74.78 400 47.59 400 27.19 400 0 400 .98 427.98 28.1 426.08 48.45 424.66"/>
  <polygon class="cls-1" points="58.09 485.52 52.96 461.39 32.87 464.93 6.09 469.65 11.91 497.03 38.3 490.46 58.09 485.52"/>
  <polygon class="cls-1" points="237.94 682.6 258.05 693.29 289.49 706.64 311.15 713.68 344.43 721.36 366.99 724.53 401.1 726.32 423.86 725.52 422.44 705.18 401.1 705.92 369.12 704.25 347.98 701.28 316.78 694.07 296.47 687.47 266.99 674.96 248.14 664.94 221.28 647.5 204.46 634.35 191.35 649.97 173.87 670.8 160.76 686.43 143.28 707.26 165.34 724.5 181.32 702.5 214.15 723.81 237.19 736.06 273.22 751.36 263.91 776.91 290.54 785.56 298.04 759.42 303.66 739.82 280.19 732.19 246.13 717.73 224.34 706.15 193.31 686 209.29 664 237.94 682.6"/>
  <polygon class="cls-1" points="261.73 641.39 278.91 650.52 305.77 661.92 324.27 667.93 352.7 674.5 371.96 677.2 401.1 678.73 420.54 678.05 419.12 657.71 401.1 658.33 374.1 656.92 356.24 654.41 329.89 648.33 312.74 642.76 287.85 632.19 271.93 623.72 249.25 609 235.04 597.9 221.93 613.52 237.27 625.5 261.73 641.39"/>
  <polygon class="cls-1" points="486.62 743.01 480.04 716.62 475.11 696.84 468.53 670.45 463.6 650.66 445.96 654.41 449.5 674.5 454.22 701.28 457.76 721.36 462.49 748.14 425.76 752.65 401.1 753.51 364.15 751.57 339.71 748.14 336.17 768.23 331.45 795.01 359.17 798.9 362.02 771.86 401.1 773.91 427.18 772.99 466.03 768.23 470.75 795.01 498.13 789.18 491.55 762.8 486.62 743.01"/>
  <polygon class="cls-1" points="544.88 722.95 533.82 698.11 525.53 679.47 514.47 654.63 506.17 636 489.45 642.76 496.43 661.92 505.73 687.47 512.71 706.64 522.01 732.19 528.98 751.36 538.28 776.91 564.24 766.42 553.18 741.58 544.88 722.95"/>
  <polygon class="cls-1" points="598.78 693.07 583.57 670.53 572.17 653.62 556.96 631.08 545.56 614.17 530.27 623.72 540.46 641.39 554.06 664.94 564.26 682.6 577.85 706.15 588.05 723.81 601.65 747.36 625.39 732.53 610.18 709.98 598.78 693.07"/>
  <polygon class="cls-1" points="655.51 444.86 675.59 448.4 678.3 429.14 679.83 400 679.15 380.56 675.59 351.6 671.55 332.57 663.02 304.67 655.73 286.63 642.49 260.64 632.18 244.14 615.27 255.54 624.82 270.83 637.1 294.93 643.85 311.64 651.76 337.5 655.51 355.14 658.8 381.98 659.43 400 658.02 427 655.51 444.86"/>
  <polygon class="cls-1" points="635.83 173.32 621.16 187.49 601.6 206.38 586.93 220.55 598.99 233.95 614.62 220.84 635.45 203.36 651.07 190.25 671.9 172.77 694.17 202.32 707.25 223.24 724.05 256.21 733.29 279.09 752.46 272.12 778.01 262.82 767.52 236.86 742.68 247.92 724.91 213.05 711.08 190.91 687.53 159.66 708.36 142.18 689.62 121.37 670.06 140.26 655.39 154.43 635.83 173.32"/>
  <polygon class="cls-1" points="580.92 152.5 564.93 174.5 552.94 191 567.15 202.1 580.26 186.48 597.74 165.65 610.85 150.03 628.33 129.2 641.44 113.57 658.92 92.74 636.86 75.5 620.87 97.5 608.89 114 592.9 136 580.92 152.5"/>
  <polygon class="cls-1" points="540.46 158.61 554.06 135.06 564.26 117.4 577.85 93.85 588.05 76.19 601.65 52.64 576.93 39.49 565.01 63.94 556.07 82.27 544.15 106.71 535.21 125.04 523.29 149.48 514.35 167.81 530.27 176.28 540.46 158.61"/>
  <polygon class="cls-1" points="772.96 439.08 775 400 774.09 373.92 769.32 335.07 796.1 330.35 790.28 302.97 763.9 309.54 744.11 314.48 749.24 338.61 753.75 375.34 754.61 400 752.67 436.95 725.63 434.11 727.42 400 726.62 377.24 722.46 343.34 717.72 321.06 707.74 288.39 699.2 267.27 683.7 236.84 671.63 217.53 654.72 228.93 666.04 247.04 680.57 275.57 688.57 295.37 697.93 325.99 702.37 346.88 706.28 378.66 707.02 400 705.35 431.98 702.37 453.12 722.46 456.66 749.24 461.39 769.32 464.93 796.1 469.65 800 441.93 772.96 439.08"/>
  <path class="cls-1" d="m665.1,591.8l18.6-28.65,10.69-20.11-18.33-8.94-24.44-11.92-18.33-8.94-8.47,15.92-14.73,22.68-11.1,14.21-18.44,19.78-13.4,12.07,13.11,15.62,17.48,20.83,13.11,15.62,16.93-15.24,23.29-24.98,14.02-17.95Zm-29.65,4.84l-21.84,23.42-18.89-19.56,19.9-21.34,11.98-15.33,15.89-24.47,23.55,13.6-17.44,26.86-13.15,16.83Z"/>
  <polygon class="cls-1" points="646.67 654.29 628.33 670.8 641.44 686.43 658.92 707.26 679.73 688.53 660.84 668.97 646.67 654.29"/>
  <polygon class="cls-1" points="740.92 497.44 714.78 489.95 695.17 484.32 669.03 476.83 649.43 471.21 643.85 488.36 663.02 495.33 688.57 504.63 707.74 511.61 733.29 520.91 718.83 554.97 707.25 576.76 687.09 607.79 671.9 627.23 687.53 640.34 708.36 657.82 725.59 635.76 703.59 619.78 724.91 586.95 737.16 563.91 752.46 527.88 778.01 537.18 786.66 510.56 760.52 503.06 740.92 497.44"/>
</svg>